<svg version="1.1" id="Layer_1" xmlns:x="ns_extend;" xmlns:i="ns_ai;" xmlns:graph="ns_graphs;" xmlns="http://www.w3.org/2000/svg" xmlns:xlink="http://www.w3.org/1999/xlink" x="0px" y="0px" viewBox="0 0 408.5 102" style="enable-background:new 0 0 408.5 102;" xml:space="preserve">
 <style type="text/css">
  .st0{fill:#233E66;}
 </style>
 <metadata>
  <sfw xmlns="ns_sfw;">
   <slices>
   </slices>
   <sliceSourceBounds bottomLeftOrigin="true" height="102" width="408.5" x="-222.1" y="-198.6">
   </sliceSourceBounds>
  </sfw>
 </metadata>
 <g>
  <rect x="87.4" y="0" class="st0" width="17.9" height="101.9">
  </rect>
  <path class="st0" d="M324.4,84.5c-6.8,0-10.4-4.3-10.4-9.7c0-4.9,3.1-8.9,10.5-10.9l38.4-10.6v31.2H324.4z M381.1,26.2
		c0-13-8.2-26.2-28.3-26.2h-37.8c-6.2,0-8.3,2.5-8.9,7.8c-0.2,2.1-1,9.6-1,9.6h44.7c9.5,0,13.2,4.5,13.2,11.6v5.9l-37.8,10.3
		c-20.2,5.5-29.9,14.3-29.9,29.7c0,16.6,12.9,27,28.1,27h57.8V26.2z">
  </path>
  <path class="st0" d="M249.4,29c0-7.2,3.7-11.6,13.2-11.6h30.3c0,0-0.8-7.5-1-9.6C291.2,2.5,289,0,282.9,0h-23.4
		c-20.1,0-28.3,13.2-28.3,26.2v75.7h18.2V29z">
  </path>
  <path class="st0" d="M179.1,17.4c9.5,0,13.2,4.4,13.2,11.6v72.9h18.2V26.2c0-13-8.2-26.2-28.3-26.2h-55.5v101.9h17.9V17.4H179.1z">
  </path>
  <path class="st0" d="M62.9,48.3c-0.6-5.2-2.7-7.8-8.9-7.8H18.2V29c0-7.2,3.7-11.6,13.2-11.6h43.1c0,0-0.8-7.5-1-9.6
		C72.9,2.5,70.7,0,64.6,0H28.3C8.2,0,0,13.2,0,26.2v75.7h18.2v-44h45.7C63.9,57.9,63.1,50.5,62.9,48.3">
  </path>
  <path class="st0" d="M400.4,85.8c1.4,0,2.7,0.4,4,1c1.3,0.7,2.3,1.7,3,3c0.7,1.3,1.1,2.7,1.1,4.1c0,1.4-0.4,2.7-1.1,4
		c-0.7,1.3-1.7,2.3-3,3c-1.3,0.7-2.6,1.1-4,1.1c-1.4,0-2.8-0.4-4-1.1c-1.3-0.7-2.3-1.7-3-3c-0.7-1.3-1.1-2.6-1.1-4
		c0-1.4,0.4-2.8,1.1-4.1c0.7-1.3,1.7-2.3,3-3C397.7,86.1,399.1,85.8,400.4,85.8 M400.4,87.1c-1.1,0-2.3,0.3-3.3,0.9
		c-1.1,0.6-1.9,1.4-2.5,2.5c-0.6,1.1-0.9,2.2-0.9,3.4c0,1.2,0.3,2.3,0.9,3.4c0.6,1.1,1.4,1.9,2.5,2.5c1.1,0.6,2.2,0.9,3.4,0.9
		c1.2,0,2.3-0.3,3.4-0.9c1.1-0.6,1.9-1.4,2.5-2.5c0.6-1.1,0.9-2.2,0.9-3.4c0-1.2-0.3-2.3-0.9-3.4c-0.6-1.1-1.5-1.9-2.5-2.5
		C402.7,87.4,401.6,87.1,400.4,87.1 M396.9,98.4v-8.7h3c1,0,1.8,0.1,2.2,0.2c0.5,0.2,0.8,0.4,1.1,0.8c0.3,0.4,0.4,0.8,0.4,1.3
		c0,0.6-0.2,1.2-0.7,1.7c-0.5,0.5-1.1,0.7-1.8,0.8c0.3,0.1,0.6,0.3,0.7,0.5c0.3,0.3,0.8,0.9,1.3,1.7l1.1,1.7h-1.7l-0.8-1.4
		c-0.6-1.1-1.1-1.8-1.5-2c-0.3-0.2-0.6-0.3-1.1-0.3h-0.8v3.7H396.9z M398.3,93.5h1.7c0.8,0,1.4-0.1,1.7-0.4c0.3-0.2,0.4-0.6,0.4-1
		c0-0.3-0.1-0.5-0.2-0.7c-0.1-0.2-0.3-0.4-0.6-0.5c-0.3-0.1-0.7-0.2-1.4-0.2h-1.6V93.5z">
  </path>
 </g>
</svg>