<?xml version="1.0" encoding="utf-8"?>
<!-- Generator: Adobe Illustrator 25.0.1, SVG Export Plug-In . SVG Version: 6.00 Build 0)  -->
<svg version="1.0" id="Layer_1" xmlns="http://www.w3.org/2000/svg" xmlns:xlink="http://www.w3.org/1999/xlink" x="0px" y="0px"
	 viewBox="0 0 886 549" style="enable-background:new 0 0 886 549;" xml:space="preserve">
<style type="text/css">
	.st0{fill:#ED1B34;}
	.st1{fill:#3A062D;}
	.st2{fill:none;}
</style>
<path class="st0" d="M167.9,270.2c0.2-0.8,0-4.7-1.9-5.6c-1.3-0.6-2.6-0.8-4-0.8c-1.4-0.1-2.7,0.1-4,0.5
	C161.1,266.6,164.4,268.6,167.9,270.2z M180.5,307.5c-2.8,3.1-6.6,8.3-10,8.3c-3.1-0.4-6.1-1.4-8.8-2.9c-2.2-1.2-2.8-2.4-2.8-3.8
	c0-0.8,0.4-2.1,0.4-2.8c0-2.8-4.2-9.5-8.6-15.2c-4.4-5.7-15.2-11.3-15.2-21.1c0.1-9.2,5.5-17.4,13.9-21.2v-1.3
	c-12.1,3.7-21.6,13.5-21.6,30.5c0,27.2,22.7,41,27.2,61.8c35.8-8.1,58.3-43.7,50.3-79.5c-8.1-35.8-43.7-58.3-79.5-50.3
	c-22.2,5-40.3,21-48,42.5c13.9-16.4,34.3-26,55.8-26c5.3,0,10.6,0.6,15.9,1.6v1.2c-2.7-0.2-5.7-0.4-8.4-0.4c-34,0-64,27.4-64,55.4
	c0,30.3,26.4,52.9,55.2,56.5v-1.2c-9.7-3.7-40.1-20.1-40.1-52.2c0-27,23.5-50,49.4-50c4.3-0.1,8.6,0.5,12.7,1.7
	c4.3-4.2,6.4-11.5,7.6-11.5c1.2,0,2.2,4.1,2.2,7.1c-0.2,2.8-0.9,5.5-2.2,8c6.6,4.3,11.1,16.7,11.1,19c0,1.5-0.7,2.7-0.7,4.4
	c1,6.9,2.3,13.8,4,20.5C178,293.5,179.5,300.5,180.5,307.5L180.5,307.5z"/>
<path class="st1" d="M379.7,315H364l-9.6-22.2h-31.1l-9.9,22.2h-8.7l38-84L379.7,315z M326.5,285.7h24.7l-12.1-27.8L326.5,285.7z
	 M422.6,316.6c-22.1,0-39.7-16.1-39.7-41.4c0-27.4,19.3-43.2,39.7-43.2c14.9,0,28.9,7.8,29.7,22.6l-16.2,2c-0.4-10.9-6.6-17-16.1-17
	c-12.4,0-22.6,11.8-22.6,29c0,20.9,12.9,35.4,30.9,35.4c9.8,0.1,19-4.5,24.8-12.4C452,307.8,437.5,316.5,422.6,316.6L422.6,316.6z
	 M468,233.5h14.6V272l35.8-38.6h11.4l-28,30.1l30.7,51.5h-16.8l-24.1-40.5l-9,9.5v30.9H468V233.5z M708,231.1l58.7,57.4v-55.1h8.6
	v83.9l-58.7-57.4V315H708V231.1z M262.7,330.5c12.4-4.4,15.9-15.4,15.9-29.5v-67.8h14.7v68.3c0,18.2-8.2,29.9-23.2,29.9
	C267.6,331.5,265.1,331.2,262.7,330.5z M568.9,264.4l11.6,4.6c12,4.7,20.3,11.9,20.3,23.4c0,14-12.1,24.1-29.9,24.1
	s-30.4-8.3-31.7-23.2l16.1-2c0.2,9.9,5.7,17.9,16.8,17.9c9.8,0,15-5.1,15-12.2s-4-11.1-14.9-15.4l-11.7-4.6
	c-11.7-4.6-18.8-12.4-18.8-22.3c0-12.6,11.5-23.1,28.2-23.1s27.1,7.4,28.8,19.8l-15.8,2c0.5-7.5-5.1-14-12.6-14.6
	c-0.6,0-1.2,0-1.7,0c-8.3,0-12.9,4.9-12.9,11.1S559.1,260.6,568.9,264.4z M612.6,274.4c0-26.6,19.7-42.5,40.8-42.5
	s40.2,15.1,40.2,42.1s-19.6,42.6-40.8,42.6S612.6,301.4,612.6,274.4z M654.6,309c13.4,0,22.7-12.4,22.7-32.2
	c0-22.3-10.9-37.4-25.8-37.4c-13.4,0-22.7,12.4-22.7,32.2C628.9,293.9,639.8,309,654.6,309L654.6,309z"/>
<path class="st1" d="M791.7,240.7c-0.1-2.3,0.8-4.5,2.4-6.2c3.4-3.4,8.8-3.5,12.2-0.1c0,0,0,0,0,0l0.1,0.1c1.6,1.6,2.5,3.9,2.5,6.2
	c0,4.8-3.9,8.6-8.6,8.6S791.7,245.5,791.7,240.7L791.7,240.7z M793.5,240.7c-0.1,1.9,0.6,3.7,1.9,5.1c1.3,1.4,3.1,2.1,4.9,2
	c1.8,0.1,3.6-0.7,4.9-2c1.3-1.4,2-3.2,2-5.1c0.1-1.8-0.6-3.6-1.9-5c-1.3-1.4-3.1-2.1-4.9-2.1c-1.9-0.1-3.7,0.7-4.9,2.1
	C794.2,237.1,793.5,238.9,793.5,240.7L793.5,240.7z M797.2,235.9h3.4c1.4-0.2,2.8,0.7,3.1,2.2c0,0.2,0,0.4,0,0.6
	c0,1.3-0.9,2.4-2.1,2.7l2.9,4.2h-1.8l-2.8-4.1h-0.9v4.1h-1.6L797.2,235.9z M800.6,239.8c0.9,0,1.4-0.4,1.4-1.1s-0.5-1.2-1.4-1.2
	h-1.8v2.4H800.6z"/>
<rect x="53" y="186" class="st2" width="780" height="177"/>
</svg>
