<svg xmlns="http://www.w3.org/2000/svg" viewBox="0 0 350 120"><g fill="none" stroke="#918f90" stroke-width="2"><path d="M276.06 75.29c-.08-6.28.57-13.5-.35-19.64a.52.52 0 0 0-.95-.2c-2.47 3.96-8.2 11.67-8.26 15.99q-.09 6.69.04 13.43.01.47.47.6l24.01 6.9q.46.14.46-.35.06-23.44 0-46.9c-.01-4 4.64-10.16 6.88-13.51q.39-.57.39.12l.28 62.25q0 .51.51.51l8.19.01q.49 0 .5-.48l.32-62.27q0-.85.48-.15c2.4 3.57 6.76 9.56 6.75 13.91q-.06 23.33-.02 46.55a.37.36-6.9 0 0 .46.35l27.59-6.89q.43-.11.43-.55c.03-3.51.78-9.12-1.02-12.19q-6.35-10.76-12.91-21.39-.42-.68-.88-1.1a.39.39 0 0 0-.65.28l-.34 21.57a.91.91 0 0 0 .96.92l4.74-.25a.58.58 0 0 1 .61.58v1.83q0 .48-.48.49l-8.47.14q-.55.01-.55-.54V43q0-.43-.22-.79L306 10.86a2.71 2.71 0 0 0-4.63 0l-19.09 31.3q-.28.46-.28.99V75q0 .75-.75.75h-4.72q-.46 0-.47-.46M19.21 65.29c2.25-10.77 10.43-19.57 17.46-27.88a.62.62 0 0 0-.33-1c-25.7-6.38-31.9 19.88-31.26 38.51q.02.52.46.79c3.83 2.33 14.96.08 19.47-.68 6.92-1.17 8.17-4.04 8.44-10.7a1.79 1.78-6.9 0 0-2.28-1.78l-11.39 3.27a.46.45 87.7 0 1-.57-.53M192.91 50.16c-3.61-8.46-10.59-4.74-14.25.58a.36.36 0 0 0 .37.55q2.47-.51 3.85 1.5.33.47.25 1.04c-.71 5.12-4.34 9.44-5.72 15.35-1.08 4.65 8.9 8.39 10.93 3.38 1.55-3.86 2.44-9.42 4.61-12.36 2.11-2.87 6.28-5.79 9.92-3.76q.54.3.64.91l.3 1.89q.09.56.54.21c2.66-2.09 8.06-9.36 4.06-12.19-3.51-2.49-11.3.99-14.35 3.21a.77.76-29.8 0 1-1.15-.31M252.82 48.2a3.1 3.1 0 0 0-3.1-3.1 3.1 3.1 0 0 0-3.1 3.1 3.1 3.1 0 0 0 3.1 3.1 3.1 3.1 0 0 0 3.1-3.1M155.49 60.94q9.36 1.43 16.44-3.44c6.91-4.75 2.14-11.84-4.92-11.73-10.69.16-22.62 6.34-25.38 17.38-1.56 6.25 1.94 10.47 8.09 11.51q12.53 2.11 17.16-10.95a.66.66 0 0 0-.95-.8c-2.77 1.57-6.5 3.88-9.7 2.13q-2-1.09-1.37-3.68.12-.5.63-.42M217.48 68.89c-3.22 1.74-6.32 1.71-8.52-1.53a.93.88-64.4 0 1-.15-.47l-.12-2.86q-.03-.68-.7-.58c-7.49 1.1-5.61 9.84 1.02 11.5q12.52 3.15 20.03-6.11 3.84-4.74-.04-9.94a1.49 1.41-6.9 0 0-.65-.48q-3.96-1.45-4.94-3.08-1.84-3.09 1.55-4.07a3.19 3.16 52.3 0 1 2.56.34c5.5 3.36 14.07 7.52 15.88-2.57q.09-.5-.41-.56c-5.02-.63-10.15-2.96-14.83-2.69-7.27.42-21.51 5.09-15.89 15.65 1.09 2.03 3.52 3.43 5.4 4.82a1.56 1.56 0 0 1-.19 2.63M118.71 54.46q.35-3.05-.75-5.87a3.09 3.09 0 0 0-2.45-1.93q-9.06-1.24-14.61 5.82a.3.3 0 0 0 .36.46q3.09-1.35 4.81 1.19c3.25 4.78-10.9 24.74-10.57 31.42a2.29 2.28-1.9 0 0 2.33 2.17c11.58-.19 14.65-8.46 16.52-18.06a.47.47 0 0 1 .93.09c-.03 4.38 8.91 5 11.59 4.49 7.93-1.53 12.2-9.12 13.86-16.46 2.56-11.37-8.72-10.15-15-7.15-2.05.98-4.27 2.84-6.44 4.2q-.67.43-.58-.37" vector-effect="non-scaling-stroke"/><path d="M86.89 70.14c1.02 2.37 3.16 6.85 6.58 5.08q5.58-2.87 5.89-8.67c.29-5.22-3.09-22.29-11.66-19.64q-16.22 5.03-21.89 21.65-.91 2.67.51 4.39c5.54 6.69 14.88 2.93 19.82-2.92q.46-.55.75.11" vector-effect="non-scaling-stroke"/><path d="M50.79 62.38c5.91.61 12.75-.22 17.33-4.33 2.99-2.68 3.88-7.19.04-9.49-7.23-4.35-20.05 1.24-25.56 6.51-5.15 4.93-9.95 17.82.21 20.37q14.85 3.72 19.55-10.54a.52.52 0 0 0-.66-.65c-2.38.82-12.78 6.09-11.47-1.45q.09-.47.56-.42M342.27 95.3a3.07 3.07 0 0 0-3.07-3.07 3.07 3.07 0 0 0-3.07 3.07 3.07 3.07 0 0 0 3.07 3.07 3.07 3.07 0 0 0 3.07-3.07M285.75 108.25h-5.5a1 1 0 0 1-1-1v-10q0-.5-.5-.5h-5.24q-.5 0-.51.51-.06 5.97.19 11.92c.22 5.07 13.03 3.07 16.34 3.03 4.36-.05 3.05-9.9 2.88-15.04q-.02-.43-.46-.43l-5.2.01q-.5.01-.5.5v10.5q0 .5-.5.5M302.24 112.34q2.1.38 4.41.1.6-.08.6-.68v-10.08a.8.79-89 0 1 .82-.8l4.49.15a.66.66 0 0 0 .69-.66v-3.08a.77.77 0 0 0-.77-.77l-17.54.1q-.44 0-.44.44v2.63a1.37 1.37 0 0 0 1.45 1.37l4.1-.26q.52-.03.52.49l.03 10.71q0 .34.32.45.2.07.39.04.87-.15.93-.15M321.25 107.47v-5.94q0-.47.47-.48l12.22-.17q.56 0 .56-.57v-3.03q0-.59-.59-.63-7.87-.51-15.71.2c-4.6.43-3.62 8.67-3.21 11.98.32 2.55 1.65 3.24 4.01 3.34 5.04.2 12.31 1.13 14.46-.93 1.6-1.52 1.41-5.88 1.23-7.9q-.04-.44-.48-.45l-5.21-.03q-.65-.01-.67.64l-.09 4.18q-.01.39-.41.39l-6.04-.05q-.54-.01-.54-.55M251.13 46.54q-.56-1.04-1.65-.78-1.88.43-2.26 2.68-.08.44.23.76c1.85 1.86 4.07 1.42 4.77-1.15q.08-.3-.03-.55-.19-.4-.53-.52-.35-.11-.53-.44M163.21 51.72q-4.29-.68-6.46 3.25a.53.53 0 0 0 .45.79q3.45.12 6.48-1.77a1.24 1.24 0 0 0-.47-2.27" vector-effect="non-scaling-stroke"/><path d="M249.015 49.007a1.14.86 133.5 0 0 1.409-.235 1.14.86 133.5 0 0 .16-1.419 1.14.86 133.5 0 0-1.408.235 1.14.86 133.5 0 0-.16 1.419M127.06 58.07c-4.41.11-12.35 4.91-6.15 9.75 3.21 2.5 6.85-5.4 7.7-7.51a1.63 1.62-79.8 0 0-1.55-2.24M79.4 65.33c2.26 2.82 5.93.31 6.5-2.28q.57-2.61-1.04-6.37-.2-.47-.65-.23c-2.67 1.39-7.32 5.76-4.81 8.88M59.61 53.86l-1.96-1.13q-.51-.3-1.06-.09-2.83 1.07-4.48 3.61a.46.46 0 0 0 .32.7q4.16.57 7.15-2.37.48-.47.03-.72M337.99 95.43l.28-.89q.21-.67-.48-.78-.47-.08-.73.31a.91.03-56.6 0 0-.47.76q.16 2.21 2.52 3.07.27.11.48-.11l1.64-1.73q.97-1.03-.04-2.03-.67-.66-1.6-.77-.55-.07-.23.38.98 1.4-.24 2.51a.7.69-12.3 0 1-1.13-.72" vector-effect="non-scaling-stroke"/></g><path fill="#fff" d="M0 0h350v120H0V0Zm276.06 75.29c-.08-6.28.57-13.5-.35-19.64a.52.52 0 0 0-.95-.2c-2.47 3.96-8.2 11.67-8.26 15.99q-.09 6.69.04 13.43.01.47.47.6l24.01 6.9q.46.14.46-.35.06-23.44 0-46.9c-.01-4 4.64-10.16 6.88-13.51q.39-.57.39.12l.28 62.25q0 .51.51.51l8.19.01q.49 0 .5-.48l.32-62.27q0-.85.48-.15c2.4 3.57 6.76 9.56 6.75 13.91q-.06 23.33-.02 46.55a.37.36-6.9 0 0 .46.35l27.59-6.89q.43-.11.43-.55c.03-3.51.78-9.12-1.02-12.19q-6.35-10.76-12.91-21.39-.42-.68-.88-1.1a.39.39 0 0 0-.65.28l-.34 21.57a.91.91 0 0 0 .96.92l4.74-.25a.58.58 0 0 1 .61.58v1.83q0 .48-.48.49l-8.47.14q-.55.01-.55-.54V43q0-.43-.22-.79L306 10.86a2.71 2.71 0 0 0-4.63 0l-19.09 31.3q-.28.46-.28.99V75q0 .75-.75.75h-4.72q-.46 0-.47-.46Zm-256.85-10c2.25-10.77 10.43-19.57 17.46-27.88a.62.62 0 0 0-.33-1c-25.7-6.38-31.9 19.88-31.26 38.51q.02.52.46.79c3.83 2.33 14.96.08 19.47-.68 6.92-1.17 8.17-4.04 8.44-10.7a1.79 1.78-6.9 0 0-2.28-1.78l-11.39 3.27a.46.45 87.7 0 1-.57-.53Zm173.7-15.13c-3.61-8.46-10.59-4.74-14.25.58a.36.36 0 0 0 .37.55q2.47-.51 3.85 1.5.33.47.25 1.04c-.71 5.12-4.34 9.44-5.72 15.35-1.08 4.65 8.9 8.39 10.93 3.38 1.55-3.86 2.44-9.42 4.61-12.36 2.11-2.87 6.28-5.79 9.92-3.76q.54.3.64.91l.3 1.89q.09.56.54.21c2.66-2.09 8.06-9.36 4.06-12.19-3.51-2.49-11.3.99-14.35 3.21a.77.76-29.8 0 1-1.15-.31Zm59.91-1.96a3.1 3.1 0 0 0-3.1-3.1 3.1 3.1 0 0 0-3.1 3.1 3.1 3.1 0 0 0 3.1 3.1 3.1 3.1 0 0 0 3.1-3.1Zm-97.33 12.74q9.36 1.43 16.44-3.44c6.91-4.75 2.14-11.84-4.92-11.73-10.69.16-22.62 6.34-25.38 17.38-1.56 6.25 1.94 10.47 8.09 11.51q12.53 2.11 17.16-10.95a.66.66 0 0 0-.95-.8c-2.77 1.57-6.5 3.88-9.7 2.13q-2-1.09-1.37-3.68.12-.5.63-.42Zm61.99 7.95c-3.22 1.74-6.32 1.71-8.52-1.53a.93.88-64.4 0 1-.15-.47l-.12-2.86q-.03-.68-.7-.58c-7.49 1.1-5.61 9.84 1.02 11.5q12.52 3.15 20.03-6.11 3.84-4.74-.04-9.94a1.49 1.41-6.9 0 0-.65-.48q-3.96-1.45-4.94-3.08-1.84-3.09 1.55-4.07a3.19 3.16 52.3 0 1 2.56.34c5.5 3.36 14.07 7.52 15.88-2.57q.09-.5-.41-.56c-5.02-.63-10.15-2.96-14.83-2.69-7.27.42-21.51 5.09-15.89 15.65 1.09 2.03 3.52 3.43 5.4 4.82a1.56 1.56 0 0 1-.19 2.63Zm-98.77-14.43q.35-3.05-.75-5.87a3.09 3.09 0 0 0-2.45-1.93q-9.06-1.24-14.61 5.82a.3.3 0 0 0 .36.46q3.09-1.35 4.81 1.19c3.25 4.78-10.9 24.74-10.57 31.42a2.29 2.28-1.9 0 0 2.33 2.17c11.58-.19 14.65-8.46 16.52-18.06a.47.47 0 0 1 .93.09c-.03 4.38 8.91 5 11.59 4.49 7.93-1.53 12.2-9.12 13.86-16.46 2.56-11.37-8.72-10.15-15-7.15-2.05.98-4.27 2.84-6.44 4.2q-.67.43-.58-.37ZM86.89 70.14c1.02 2.37 3.16 6.85 6.58 5.08q5.58-2.87 5.89-8.67c.29-5.22-3.09-22.29-11.66-19.64q-16.22 5.03-21.89 21.65-.91 2.67.51 4.39c5.54 6.69 14.88 2.93 19.82-2.92q.46-.55.75.11Zm-36.1-7.76c5.91.61 12.75-.22 17.33-4.33 2.99-2.68 3.88-7.19.04-9.49-7.23-4.35-20.05 1.24-25.56 6.51-5.15 4.93-9.95 17.82.21 20.37q14.85 3.72 19.55-10.54a.52.52 0 0 0-.66-.65c-2.38.82-12.78 6.09-11.47-1.45q.09-.47.56-.42ZM342.27 95.3a3.07 3.07 0 0 0-3.07-3.07 3.07 3.07 0 0 0-3.07 3.07 3.07 3.07 0 0 0 3.07 3.07 3.07 3.07 0 0 0 3.07-3.07Zm-56.52 12.95h-5.5a1 1 0 0 1-1-1v-10q0-.5-.5-.5h-5.24q-.5 0-.51.51-.06 5.97.19 11.92c.22 5.07 13.03 3.07 16.34 3.03 4.36-.05 3.05-9.9 2.88-15.04q-.02-.43-.46-.43l-5.2.01q-.5.01-.5.5v10.5q0 .5-.5.5Zm16.49 4.09q2.1.38 4.41.1.6-.08.6-.68v-10.08a.8.79-89 0 1 .82-.8l4.49.15a.66.66 0 0 0 .69-.66v-3.08a.77.77 0 0 0-.77-.77l-17.54.1q-.44 0-.44.44v2.63a1.37 1.37 0 0 0 1.45 1.37l4.1-.26q.52-.03.52.49l.03 10.71q0 .34.32.45.2.07.39.04.87-.15.93-.15Zm19.01-4.87v-5.94q0-.47.47-.48l12.22-.17q.56 0 .56-.57v-3.03q0-.59-.59-.63-7.87-.51-15.71.2c-4.6.43-3.62 8.67-3.21 11.98.32 2.55 1.65 3.24 4.01 3.34 5.04.2 12.31 1.13 14.46-.93 1.6-1.52 1.41-5.88 1.23-7.9q-.04-.44-.48-.45l-5.21-.03q-.65-.01-.67.64l-.09 4.18q-.01.39-.41.39l-6.04-.05q-.54-.01-.54-.55Z"/><path fill="#221f20" d="M276.53 75.75h4.72q.75 0 .75-.75V43.15q0-.53.28-.99l19.09-31.3a2.71 2.71 0 0 1 4.63 0l19.03 31.35q.22.36.22.79v32.31q0 .55.55.54l8.47-.14q.48-.01.48-.49v-1.83a.58.58 0 0 0-.61-.58l-4.74.25a.91.91 0 0 1-.96-.92l.34-21.57a.39.39 0 0 1 .65-.28q.46.42.88 1.1 6.56 10.63 12.91 21.39c1.8 3.07 1.05 8.68 1.02 12.19q0 .44-.43.55l-27.59 6.89a.37.36-6.9 0 1-.46-.35q-.04-23.22.02-46.55c.01-4.35-4.35-10.34-6.75-13.91q-.48-.7-.48.15l-.32 62.27q-.01.48-.5.48l-8.19-.01q-.51 0-.51-.51l-.28-62.25q0-.69-.39-.12c-2.24 3.35-6.89 9.51-6.88 13.51q.06 23.46 0 46.9 0 .49-.46.35l-24.01-6.9q-.46-.13-.47-.6-.13-6.74-.04-13.43c.06-4.32 5.79-12.03 8.26-15.99a.52.52 0 0 1 .95.2c.92 6.14.27 13.36.35 19.64q.01.46.47.46ZM19.78 65.82l11.39-3.27a1.79 1.78-6.9 0 1 2.28 1.78c-.27 6.66-1.52 9.53-8.44 10.7-4.51.76-15.64 3.01-19.47.68q-.44-.27-.46-.79c-.64-18.63 5.56-44.89 31.26-38.51a.62.62 0 0 1 .33 1c-7.03 8.31-15.21 17.11-17.46 27.88a.46.45 87.7 0 0 .57.53ZM192.91 50.16a.77.76-29.8 0 0 1.15.31c3.05-2.22 10.84-5.7 14.35-3.21 4 2.83-1.4 10.1-4.06 12.19q-.45.35-.54-.21l-.3-1.89q-.1-.61-.64-.91c-3.64-2.03-7.81.89-9.92 3.76-2.17 2.94-3.06 8.5-4.61 12.36-2.03 5.01-12.01 1.27-10.93-3.38 1.38-5.91 5.01-10.23 5.72-15.35q.08-.57-.25-1.04-1.38-2.01-3.85-1.5a.36.36 0 0 1-.37-.55c3.66-5.32 10.64-9.04 14.25-.58ZM252.82 48.2a3.1 3.1 0 0 1-3.1 3.1 3.1 3.1 0 0 1-3.1-3.1 3.1 3.1 0 0 1 3.1-3.1 3.1 3.1 0 0 1 3.1 3.1Zm-1.69-1.66q-.56-1.04-1.65-.78-1.88.43-2.26 2.68-.08.44.23.76c1.85 1.86 4.07 1.42 4.77-1.15q.08-.3-.03-.55-.19-.4-.53-.52-.35-.11-.53-.44ZM154.86 61.36q-.63 2.59 1.37 3.68c3.2 1.75 6.93-.56 9.7-2.13a.66.66 0 0 1 .95.8q-4.63 13.06-17.16 10.95c-6.15-1.04-9.65-5.26-8.09-11.51 2.76-11.04 14.69-17.22 25.38-17.38 7.06-.11 11.83 6.98 4.92 11.73q-7.08 4.87-16.44 3.44-.51-.08-.63.42Zm8.35-9.64q-4.29-.68-6.46 3.25a.53.53 0 0 0 .45.79q3.45.12 6.48-1.77a1.24 1.24 0 0 0-.47-2.27ZM208.96 67.36c2.2 3.24 5.3 3.27 8.52 1.53a1.56 1.56 0 0 0 .19-2.63c-1.88-1.39-4.31-2.79-5.4-4.82-5.62-10.56 8.62-15.23 15.89-15.65 4.68-.27 9.81 2.06 14.83 2.69q.5.06.41.56c-1.81 10.09-10.38 5.93-15.88 2.57a3.19 3.16 52.3 0 0-2.56-.34q-3.39.98-1.55 4.07.98 1.63 4.94 3.08a1.49 1.41-6.9 0 1 .65.48q3.88 5.2.04 9.94-7.51 9.26-20.03 6.11c-6.63-1.66-8.51-10.4-1.02-11.5q.67-.1.7.58l.12 2.86a.93.88-64.4 0 0 .15.47Z"/><path fill="#fff" d="M251.66 46.98q.34.12.53.52.11.25.03.55c-.7 2.57-2.92 3.01-4.77 1.15q-.31-.32-.23-.76.38-2.25 2.26-2.68 1.09-.26 1.65.78.18.33.53.44Zm-2.645 2.027a1.14.86 133.5 0 0 1.409-.235 1.14.86 133.5 0 0 .16-1.419 1.14.86 133.5 0 0-1.408.235 1.14.86 133.5 0 0-.16 1.419Z"/><path fill="#221f20" d="M119.29 54.83c2.17-1.36 4.39-3.22 6.44-4.2 6.28-3 17.56-4.22 15 7.15-1.66 7.34-5.93 14.93-13.86 16.46-2.68.51-11.62-.11-11.59-4.49a.47.47 0 0 0-.93-.09c-1.87 9.6-4.94 17.87-16.52 18.06a2.29 2.28-1.9 0 1-2.33-2.17c-.33-6.68 13.82-26.64 10.57-31.42q-1.72-2.54-4.81-1.19a.3.3 0 0 1-.36-.46q5.55-7.06 14.61-5.82a3.09 3.09 0 0 1 2.45 1.93q1.1 2.82.75 5.87-.09.8.58.37Zm7.77 3.24c-4.41.11-12.35 4.91-6.15 9.75 3.21 2.5 6.85-5.4 7.7-7.51a1.63 1.62-79.8 0 0-1.55-2.24Z"/><path fill="#221f20" d="M86.14 70.03c-4.94 5.85-14.28 9.61-19.82 2.92q-1.42-1.72-.51-4.39 5.67-16.62 21.89-21.65c8.57-2.65 11.95 14.42 11.66 19.64q-.31 5.8-5.89 8.67c-3.42 1.77-5.56-2.71-6.58-5.08q-.29-.66-.75-.11Zm-6.74-4.7c2.26 2.82 5.93.31 6.5-2.28q.57-2.61-1.04-6.37-.2-.47-.65-.23c-2.67 1.39-7.32 5.76-4.81 8.88Z"/><path fill="#221f20" d="M50.23 62.8c-1.31 7.54 9.09 2.27 11.47 1.45a.52.52 0 0 1 .66.65q-4.7 14.26-19.55 10.54C32.65 72.89 37.45 60 42.6 55.07c5.51-5.27 18.33-10.86 25.56-6.51 3.84 2.3 2.95 6.81-.04 9.49-4.58 4.11-11.42 4.94-17.33 4.33q-.47-.05-.56.42Zm9.38-8.94-1.96-1.13q-.51-.3-1.06-.09-2.83 1.07-4.48 3.61a.46.46 0 0 0 .32.7q4.16.57 7.15-2.37.48-.47.03-.72Z"/><ellipse fill="#221f20" rx="1.14" ry=".86" transform="rotate(133.5 114.55 77.751)"/><path fill="#fff" d="M163.21 51.72a1.24 1.24 0 0 1 .47 2.27q-3.03 1.89-6.48 1.77a.53.53 0 0 1-.45-.79q2.17-3.93 6.46-3.25ZM57.65 52.73l1.96 1.13q.45.25-.03.72-2.99 2.94-7.15 2.37a.46.46 0 0 1-.32-.7q1.65-2.54 4.48-3.61.55-.21 1.06.09ZM79.4 65.33c-2.51-3.12 2.14-7.49 4.81-8.88q.45-.24.65.23 1.61 3.76 1.04 6.37c-.57 2.59-4.24 5.1-6.5 2.28ZM127.06 58.07a1.63 1.62-79.8 0 1 1.55 2.24c-.85 2.11-4.49 10.01-7.7 7.51-6.2-4.84 1.74-9.64 6.15-9.75Z"/><path fill="#221f20" d="M342.27 95.3a3.07 3.07 0 0 1-3.07 3.07 3.07 3.07 0 0 1-3.07-3.07 3.07 3.07 0 0 1 3.07-3.07 3.07 3.07 0 0 1 3.07 3.07Zm-4.28.13.28-.89q.21-.67-.48-.78-.47-.08-.73.31a.91.03-56.6 0 0-.47.76q.16 2.21 2.52 3.07.27.11.48-.11l1.64-1.73q.97-1.03-.04-2.03-.67-.66-1.6-.77-.55-.07-.23.38.98 1.4-.24 2.51a.7.69-12.3 0 1-1.13-.72Z"/><path fill="#fff" d="M337.99 95.43a.7.69-12.3 0 0 1.13.72q1.22-1.11.24-2.51-.32-.45.23-.38.93.11 1.6.77 1.01 1 .04 2.03l-1.64 1.73q-.21.22-.48.11-2.36-.86-2.52-3.07a.91.03-56.6 0 1 .47-.76q.26-.39.73-.31.69.11.48.78l-.28.89Z"/><path fill="#221f20" d="M286.25 107.75v-10.5q0-.49.5-.5l5.2-.01q.44 0 .46.43c.17 5.14 1.48 14.99-2.88 15.04-3.31.04-16.12 2.04-16.34-3.03q-.25-5.95-.19-11.92.01-.51.51-.51h5.24q.5 0 .5.5v10a1 1 0 0 0 1 1h5.5q.5 0 .5-.5ZM301.31 112.49q-.19.03-.39-.04-.32-.11-.32-.45l-.03-10.71q0-.52-.52-.49l-4.1.26a1.37 1.37 0 0 1-1.45-1.37v-2.63q0-.44.44-.44l17.54-.1a.77.77 0 0 1 .77.77v3.08a.66.66 0 0 1-.69.66l-4.49-.15a.8.79-89 0 0-.82.8v10.08q0 .6-.6.68-2.31.28-4.41-.1-.06 0-.93.15ZM321.79 108.02l6.04.05q.4 0 .41-.39l.09-4.18q.02-.65.67-.64l5.21.03q.44.01.48.45c.18 2.02.37 6.38-1.23 7.9-2.15 2.06-9.42 1.13-14.46.93-2.36-.1-3.69-.79-4.01-3.34-.41-3.31-1.39-11.55 3.21-11.98q7.84-.71 15.71-.2.59.04.59.63v3.03q0 .57-.56.57l-12.22.17q-.47.01-.47.48v5.94q0 .54.54.55Z"/></svg>